<?xml version="1.0" encoding="utf-8"?>
<!-- Generator: Adobe Illustrator 27.2.0, SVG Export Plug-In . SVG Version: 6.00 Build 0)  -->
<svg version="1.1" id="Layer_2_00000016037813525312304760000003664154111560971656_"
	 xmlns="http://www.w3.org/2000/svg" xmlns:xlink="http://www.w3.org/1999/xlink" x="0px" y="0px" viewBox="0 0 100 100"
	 style="enable-background:new 0 0 100 100;" xml:space="preserve">
<style type="text/css">
	.st0{fill:#282828;stroke:#FFFFFF;stroke-width:3;stroke-linecap:round;stroke-linejoin:round;stroke-miterlimit:10;}
	.st1{fill:#29343F;stroke:#FFFFFF;stroke-width:3;stroke-linecap:round;stroke-linejoin:round;stroke-miterlimit:10;}
	.st2{fill:#4C545E;stroke:#FFFFFF;stroke-width:3;stroke-linecap:round;stroke-linejoin:round;stroke-miterlimit:10;}
	.st3{fill:none;stroke:#FFFFFF;stroke-width:3;stroke-linecap:round;stroke-linejoin:round;stroke-miterlimit:10;}
	.st4{display:none;fill:#4C545E;stroke:#FFFFFF;stroke-width:3;stroke-linecap:round;stroke-linejoin:round;stroke-miterlimit:10;}
	.st5{fill:#FFFFFF;}
</style>
<polygon class="st0" points="83.8,23.7 94.2,34.4 94.2,87.2 3.8,87.2 3.8,13.3 73.1,13.3 "/>
<polygon class="st1" points="3.8,32.7 3.8,87.2 94.2,87.2 94.2,58.7 64.4,58.7 38.4,32.6 "/>
<polygon class="st2" points="73.1,34.4 73.1,13.3 83.8,23.7 94.2,34.4 "/>
<line class="st3" x1="10.7" y1="21" x2="13.6" y2="21"/>
<line class="st3" x1="10.7" y1="26.8" x2="13.6" y2="26.8"/>
<line class="st3" x1="10.7" y1="32.7" x2="13.6" y2="32.7"/>
<line class="st3" x1="10.7" y1="38.5" x2="13.6" y2="38.5"/>
<line class="st3" x1="10.7" y1="50.2" x2="13.6" y2="50.2"/>
<line class="st3" x1="10.7" y1="44.4" x2="13.6" y2="44.4"/>
<line class="st3" x1="10.7" y1="56.1" x2="13.6" y2="56.1"/>
<line class="st3" x1="10.7" y1="62" x2="13.6" y2="62"/>
<line class="st3" x1="10.7" y1="67.8" x2="13.6" y2="67.8"/>
<line class="st3" x1="10.7" y1="73.7" x2="13.6" y2="73.7"/>
<line class="st3" x1="10.7" y1="79.6" x2="13.6" y2="79.6"/>
<path class="st4" d="M39.4,33.2v24.2c-5.6,0.1-7.9,3-7.9,6.6s2.5,7.4,8.2,7.4c3.6,0,6.6-3.8,6.6-7.4c0-0.4,0-0.7,0-0.9l0,0V42.4
	l12.2-2.3v13.7c-5.6,0.1-7.9,3-7.9,6.6s2.5,7.4,8.2,7.4c3.6,0,6.6-3.8,6.6-7.4c0-0.4,0-0.7,0-0.9v-3.8V28.3L39.4,33.2z"/>
<rect x="43.2" y="42" class="st2" width="53.1" height="27.9"/>
<g>
	<g>
		<path class="st5" d="M45.9,63.8v-2.3l1.7-0.4v-11l-1.7-0.4v-2.3h8c1.3,0,2.4,0.2,3.4,0.6s1.7,1,2.2,1.8c0.5,0.8,0.8,1.7,0.8,2.7
			c0,1-0.3,1.8-0.8,2.7s-1.2,1.5-2.1,2s-1.9,0.7-3.1,0.7l-2.7,0v3.3l1.7,0.4v2.3H45.9z M51.5,54.8h2.4c0.8,0,1.3-0.2,1.8-0.5
			c0.4-0.4,0.6-0.9,0.6-1.5c0-0.7-0.2-1.3-0.6-1.7c-0.4-0.4-1-0.6-1.8-0.6h-2.4V54.8z M56.2,63.8L54,57.4l3.4-1.2l2,4.9l1.5,0.4v2.3
			H56.2z"/>
		<path class="st5" d="M61.6,63.8v-2.3l1.1-0.2l4.9-13.9h4.3l4.9,13.9l1.1,0.2v2.3h-6.1v-2.3l1.1-0.2l-0.5-1.8h-5.2l-0.5,1.8
			l1.1,0.2v2.3H61.6z M68,56.7h3.6l-1.6-4.9l-0.2-0.6h-0.1l-0.2,0.6L68,56.7z"/>
		<path class="st5" d="M78.6,63.8v-2.3l1.7-0.4v-11l-1.7-0.4v-2.3h8c1.3,0,2.4,0.2,3.4,0.6s1.7,1,2.2,1.8c0.5,0.8,0.8,1.7,0.8,2.7
			c0,1-0.3,1.8-0.8,2.7s-1.2,1.5-2.1,2s-1.9,0.7-3.1,0.7l-2.7,0v3.3l1.7,0.4v2.3H78.6z M84.2,54.8h2.4c0.8,0,1.3-0.2,1.8-0.5
			c0.4-0.4,0.6-0.9,0.6-1.5c0-0.7-0.2-1.3-0.6-1.7c-0.4-0.4-1-0.6-1.8-0.6h-2.4V54.8z M88.9,63.8l-2.2-6.4l3.4-1.2l2,4.9l1.5,0.4
			v2.3H88.9z"/>
	</g>
</g>
<g>
	<rect x="24.6" y="41.4" class="st2" width="8.8" height="26.5"/>
	<polygon class="st2" points="33.3,67.9 24.6,67.9 21.2,80.7 36.7,80.7 	"/>
	<line class="st3" x1="28.4" y1="62.2" x2="29.5" y2="62.2"/>
	<line class="st3" x1="28.4" y1="57.3" x2="29.5" y2="57.3"/>
	<line class="st3" x1="28.4" y1="52.3" x2="29.5" y2="52.3"/>
	<line class="st3" x1="28.4" y1="47.4" x2="29.5" y2="47.4"/>
</g>
</svg>
